<svg width="121" height="30" viewBox="190 15 121 30" xmlns="http://www.w3.org/2000/svg"><g fill="none" fill-rule="evenodd"><path d="M271.553 38.758c.596 0 1.122.12 1.58.358.46.238.814.575 1.066 1.01.253.435.378.94.378 1.516 0 .569-.125 1.072-.378 1.51a2.603 2.603 0 0 1-1.065 1.022c-.459.242-.985.363-1.58.363-.603 0-1.133-.121-1.591-.363a2.603 2.603 0 0 1-1.066-1.021c-.252-.439-.378-.942-.378-1.51 0-.576.126-1.082.378-1.517a2.579 2.579 0 0 1 1.066-1.01c.458-.239.988-.358 1.59-.358zm0 1.347c-.42 0-.76.144-1.023.432-.263.288-.394.663-.394 1.126 0 .463.131.839.394 1.126.262.288.603.432 1.023.432.414 0 .751-.144 1.014-.432.262-.287.393-.663.393-1.126 0-.463-.13-.838-.393-1.126-.263-.288-.6-.432-1.014-.432zm5.712-.273c.197-.351.452-.618.767-.8a2.237 2.237 0 0 1 1.103-.285v1.527a2.208 2.208 0 0 0-.252-.01c-.498 0-.891.134-1.182.404-.29.27-.436.63-.436 1.08v2.726h-1.616V38.81h1.617v1.02zm10.731-2.737h1.995v7.379h-1.858l-3.118-4.106v4.106h-2.006v-7.38h1.869l3.119 4.117v-4.116zm6.983-.137c.756 0 1.44.165 2.053.495.612.33 1.092.784 1.438 1.363.347.579.52 1.23.52 1.952 0 .73-.173 1.388-.52 1.974a3.68 3.68 0 0 1-1.438 1.38c-.613.332-1.297.5-2.053.5-.763 0-1.449-.168-2.058-.5a3.69 3.69 0 0 1-1.433-1.38 3.804 3.804 0 0 1-.52-1.974c0-.722.173-1.373.52-1.952a3.676 3.676 0 0 1 1.433-1.363c.609-.33 1.295-.495 2.058-.495zm.031 1.82c-.322 0-.62.089-.897.264a1.906 1.906 0 0 0-.662.721 2.107 2.107 0 0 0-.247 1.016c0 .372.083.712.247 1.021.165.309.385.553.662.732.276.179.575.268.897.268.316 0 .608-.09.877-.268.27-.18.481-.421.635-.727.155-.305.231-.647.231-1.026 0-.372-.076-.71-.23-1.016a1.831 1.831 0 0 0-.63-.72 1.568 1.568 0 0 0-.882-.264zm4.116-1.683h6.468v1.747h-2.142v5.632h-2.194v-5.632h-2.132v-1.747zm6.71 2.494c.007-.807.231-1.435.672-1.884.441-.449 1.053-.673 1.837-.673.736 0 1.31.163 1.722.49.414.325.62.787.62 1.383 0 .372-.075.681-.226.927a4.43 4.43 0 0 1-.646.79 4.694 4.694 0 0 0-.54.641 1.123 1.123 0 0 0-.174.632h-1.585c0-.407.063-.73.189-.969.126-.238.308-.487.546-.747.168-.19.29-.347.367-.474a.853.853 0 0 0 .116-.452c0-.365-.196-.548-.588-.548-.455 0-.683.295-.683.884h-1.627zm2.436 2.99c.294 0 .534.091.72.274a.946.946 0 0 1 .277.705c0 .295-.092.535-.278.72-.185.187-.425.28-.719.28a.959.959 0 0 1-.709-.28c-.185-.185-.278-.425-.278-.72 0-.288.093-.523.278-.705a.969.969 0 0 1 .709-.274z" fill="#006B3A"/><path d="M197.751 28.873c1.122.197 4.703-.64 5.921-4.953 1.244-4.434.61-3.546-2.995.222-1.95 2.046-3.484 4.633-2.925 4.73zm3.145 2.81c3.897-1.406 3.849-6.53 3.216-5.102-.634 1.402-1.048 2.536-2.412 3.322-1.072.615-1.827.69-3.143.663-1.097-.026-2.096-.936-2.414.444-.34 1.525 3.316 1.183 4.753.664v.008zm-3.29-6.653c2.998-4.19 7.456-5.692 6.944-6.21-.609-.616-3.289.222-3.289.222-4.167 1.478-8.697 4.238-8.99 7.688-.098 1.01.194 2.908 1.461 3.696.877.542 2.387-3.328 3.874-5.396zm-2.924-3.696c1.657-1.233 4.849-2.243 4.166-2.218-2.314.074-7.016 1.995-7.236 4.953-.073.937 1.414-1.504 3.07-2.736zM190.59 32.47c-.268-.393.804-.616.999-1.06.975-1.872-.755-1.108-1.486-5.395-1.414-8.105 12.304-8.105 14.132-8.426 1.68-.297-.026-2.54 1.29-2.54.442 0 0 1.16.442 1.332.462.198.734-1.06 1.196-.664.638.546-.606 1.038-.266 1.38.245.247.83-.219 1.026.102.34.52-.585.867-1.414 1.011-3.02.52 3.461 13.877-7.065 15.722-2.776.52-4.068-1.947-6.14-.738-.511.3-.878 1.434-1.192.963-.191-.294.32-.76 0-.958-.218-.123-.531.42-.755.223-.17-.172.075-.444-.095-.665-.145-.22-.486-.023-.66-.272l-.012-.015z" fill="#006B3A" fill-rule="nonzero"/><path d="M214.27 33.295c-2.807 0-3.325-2.148-3.325-4.277v-2.297l-1.514.056v-2.763l1.51.036v-3.586l3.434-.354v3.958l2.233-.055v2.76l-2.238-.074v2.241c0 1.006.298 1.38 1.016 1.38.366 0 .866-.075 1.09-.246l.754 2.407c-.35.241-.94.803-2.972.803l.012.011zm7.596-8.699s1.404-.897 3.6-.897c1.66 0 2.493 1.492 2.493 3.156v6.237h-3.434v-4.22c0-1.532 0-2.579-1.24-2.579-.646 0-1.421.487-1.421.487v6.312h-3.45V18.558l3.453-.28v6.33-.012zm14.455 2.648c-.191-.898-.953-1.476-1.882-1.476-1.653 0-2.211 1.364-2.063 1.75h3.887c.095 0 .08-.188.06-.274h-.002zm-1.95 6.27c-3.345 0-5.187-2.183-5.187-5.339 0-2.819 2.2-4.649 5.3-4.649 2.728 0 4.636 1.809 4.636 4.703v1.198l-6.778-.005c0 1.08 1.217 1.642 2.142 1.642.941 0 1.42-.278 1.92-.69l2.025 1.423c-.404.428-1.637 1.717-4.058 1.717zm15.54-4.964c1.348 0 2.586-1.177 2.586-2.841 0-1.348-1.239-2.487-2.586-2.487-1.366 0-2.604 1.139-2.604 2.482 0 1.66 1.237 2.836 2.605 2.836v.01zm0 5.001c-4.173 0-7.331-3.268-7.331-7.847 0-4.296 3.583-7.361 7.331-7.361 3.732 0 7.332 3.061 7.332 7.356 0 4.575-3.158 7.844-7.332 7.844v.008zm17.88-8.816v-5.86l4.691-.316v14.866l-9.083-6.33v5.958h-4.708V18.149l9.105 6.592-.006-.006zm6.652 8.317h4.728V18.876h-4.728v14.176zm13.536-4.5c1.348 0 2.585-1.178 2.585-2.84 0-1.344-1.237-2.483-2.585-2.483-1.366 0-2.603 1.139-2.603 2.483 0 1.662 1.236 2.84 2.603 2.84zm0 5.004c-4.173 0-7.331-3.268-7.331-7.844 0-4.295 3.583-7.358 7.331-7.358 3.731 0 7.333 3.06 7.333 7.355 0 4.574-3.158 7.842-7.333 7.842v.005zm17.878-14.679l4.694-.317v14.866l-9.086-6.332v5.958h-4.71V18.15l9.102 6.592v-5.864z" fill="#000" fill-rule="nonzero"/></g></svg>